<mxfile host="www.draw.io" modified="2020-01-30T02:07:44.921Z" agent="Mozilla/5.0 (Macintosh; Intel Mac OS X 10_15_2) AppleWebKit/537.36 (KHTML, like Gecko) Chrome/79.0.3945.130 Safari/537.36" etag="Nm50a76RivxtC-pVA4kt" version="12.6.1" type="github">
  <diagram id="EbZ6AaWoSytdkOAhNTK9" name="Page-1">
    <mxGraphModel dx="1584" dy="454" grid="1" gridSize="10" guides="1" tooltips="1" connect="1" arrows="1" fold="1" page="1" pageScale="1" pageWidth="850" pageHeight="1100" math="0" shadow="0">
      <root>
        <mxCell id="0"/>
        <mxCell id="1" parent="0"/>
        <mxCell id="P90ATOuqphbmk_Rswc86-11" value="" style="group" vertex="1" connectable="0" parent="1">
          <mxGeometry x="-170" y="270" width="180" height="130" as="geometry"/>
        </mxCell>
        <mxCell id="P90ATOuqphbmk_Rswc86-10" value="" style="rounded=0;whiteSpace=wrap;html=1;" vertex="1" parent="P90ATOuqphbmk_Rswc86-11">
          <mxGeometry width="180" height="130" as="geometry"/>
        </mxCell>
        <mxCell id="P90ATOuqphbmk_Rswc86-29" style="edgeStyle=orthogonalEdgeStyle;rounded=0;orthogonalLoop=1;jettySize=auto;html=1;exitX=0.5;exitY=1;exitDx=0;exitDy=0;entryX=0.5;entryY=0;entryDx=0;entryDy=0;" edge="1" parent="P90ATOuqphbmk_Rswc86-11" source="P90ATOuqphbmk_Rswc86-4" target="P90ATOuqphbmk_Rswc86-7">
          <mxGeometry relative="1" as="geometry"/>
        </mxCell>
        <mxCell id="P90ATOuqphbmk_Rswc86-4" value="JVM&lt;br&gt;&lt;font style=&quot;font-size: 9px&quot;&gt;(java)&lt;/font&gt;" style="ellipse;whiteSpace=wrap;html=1;fillColor=#E6E6E6;" vertex="1" parent="P90ATOuqphbmk_Rswc86-11">
          <mxGeometry x="10" y="15" width="160" height="40" as="geometry"/>
        </mxCell>
        <mxCell id="P90ATOuqphbmk_Rswc86-7" value="machine code&lt;br&gt;&lt;font style=&quot;font-size: 9px&quot;&gt;(processor-specific)&lt;/font&gt;" style="rounded=0;whiteSpace=wrap;html=1;" vertex="1" parent="P90ATOuqphbmk_Rswc86-11">
          <mxGeometry x="10" y="75" width="160" height="40" as="geometry"/>
        </mxCell>
        <mxCell id="P90ATOuqphbmk_Rswc86-12" value="" style="group" vertex="1" connectable="0" parent="1">
          <mxGeometry x="30" y="270" width="180" height="130" as="geometry"/>
        </mxCell>
        <mxCell id="P90ATOuqphbmk_Rswc86-13" value="" style="rounded=0;whiteSpace=wrap;html=1;" vertex="1" parent="P90ATOuqphbmk_Rswc86-12">
          <mxGeometry width="180" height="130" as="geometry"/>
        </mxCell>
        <mxCell id="P90ATOuqphbmk_Rswc86-30" style="edgeStyle=orthogonalEdgeStyle;rounded=0;orthogonalLoop=1;jettySize=auto;html=1;exitX=0.5;exitY=1;exitDx=0;exitDy=0;entryX=0.5;entryY=0;entryDx=0;entryDy=0;" edge="1" parent="P90ATOuqphbmk_Rswc86-12" source="P90ATOuqphbmk_Rswc86-14" target="P90ATOuqphbmk_Rswc86-15">
          <mxGeometry relative="1" as="geometry"/>
        </mxCell>
        <mxCell id="P90ATOuqphbmk_Rswc86-14" value="JVM&lt;br&gt;&lt;font style=&quot;font-size: 9px&quot;&gt;(java)&lt;/font&gt;" style="ellipse;whiteSpace=wrap;html=1;fillColor=#E6E6E6;" vertex="1" parent="P90ATOuqphbmk_Rswc86-12">
          <mxGeometry x="10" y="15" width="160" height="40" as="geometry"/>
        </mxCell>
        <mxCell id="P90ATOuqphbmk_Rswc86-15" value="machine code&lt;br&gt;&lt;font style=&quot;font-size: 9px&quot;&gt;(processor-specific)&lt;/font&gt;" style="rounded=0;whiteSpace=wrap;html=1;" vertex="1" parent="P90ATOuqphbmk_Rswc86-12">
          <mxGeometry x="10" y="75" width="160" height="40" as="geometry"/>
        </mxCell>
        <mxCell id="P90ATOuqphbmk_Rswc86-17" value="" style="group" vertex="1" connectable="0" parent="1">
          <mxGeometry x="230" y="270" width="180" height="130" as="geometry"/>
        </mxCell>
        <mxCell id="P90ATOuqphbmk_Rswc86-18" value="" style="rounded=0;whiteSpace=wrap;html=1;" vertex="1" parent="P90ATOuqphbmk_Rswc86-17">
          <mxGeometry width="180" height="130" as="geometry"/>
        </mxCell>
        <mxCell id="P90ATOuqphbmk_Rswc86-32" style="edgeStyle=orthogonalEdgeStyle;rounded=0;orthogonalLoop=1;jettySize=auto;html=1;exitX=0.5;exitY=1;exitDx=0;exitDy=0;entryX=0.5;entryY=0;entryDx=0;entryDy=0;" edge="1" parent="P90ATOuqphbmk_Rswc86-17" source="P90ATOuqphbmk_Rswc86-19" target="P90ATOuqphbmk_Rswc86-20">
          <mxGeometry relative="1" as="geometry"/>
        </mxCell>
        <mxCell id="P90ATOuqphbmk_Rswc86-19" value="JVM&lt;br&gt;&lt;font style=&quot;font-size: 9px&quot;&gt;(java)&lt;/font&gt;" style="ellipse;whiteSpace=wrap;html=1;fillColor=#E6E6E6;" vertex="1" parent="P90ATOuqphbmk_Rswc86-17">
          <mxGeometry x="10" y="15" width="160" height="40" as="geometry"/>
        </mxCell>
        <mxCell id="P90ATOuqphbmk_Rswc86-20" value="machine code&lt;br&gt;&lt;font style=&quot;font-size: 9px&quot;&gt;(processor-specific)&lt;/font&gt;" style="rounded=0;whiteSpace=wrap;html=1;" vertex="1" parent="P90ATOuqphbmk_Rswc86-17">
          <mxGeometry x="10" y="75" width="160" height="40" as="geometry"/>
        </mxCell>
        <mxCell id="P90ATOuqphbmk_Rswc86-21" value="" style="edgeStyle=orthogonalEdgeStyle;rounded=0;orthogonalLoop=1;jettySize=auto;html=1;" edge="1" parent="1" source="P90ATOuqphbmk_Rswc86-1" target="P90ATOuqphbmk_Rswc86-2">
          <mxGeometry relative="1" as="geometry"/>
        </mxCell>
        <mxCell id="P90ATOuqphbmk_Rswc86-1" value="source code&lt;br&gt;&lt;font style=&quot;font-size: 9px&quot;&gt;(*.java)&lt;/font&gt;" style="rounded=0;whiteSpace=wrap;html=1;" vertex="1" parent="1">
          <mxGeometry x="40" y="40" width="160" height="40" as="geometry"/>
        </mxCell>
        <mxCell id="P90ATOuqphbmk_Rswc86-22" value="" style="edgeStyle=orthogonalEdgeStyle;rounded=0;orthogonalLoop=1;jettySize=auto;html=1;" edge="1" parent="1" source="P90ATOuqphbmk_Rswc86-2" target="P90ATOuqphbmk_Rswc86-3">
          <mxGeometry relative="1" as="geometry"/>
        </mxCell>
        <mxCell id="P90ATOuqphbmk_Rswc86-2" value="compiler&lt;br&gt;&lt;font style=&quot;font-size: 9px&quot;&gt;(javac)&lt;/font&gt;" style="ellipse;whiteSpace=wrap;html=1;fillColor=#E6E6E6;" vertex="1" parent="1">
          <mxGeometry x="40" y="120" width="160" height="40" as="geometry"/>
        </mxCell>
        <mxCell id="P90ATOuqphbmk_Rswc86-24" style="edgeStyle=orthogonalEdgeStyle;rounded=0;orthogonalLoop=1;jettySize=auto;html=1;exitX=0;exitY=0.5;exitDx=0;exitDy=0;" edge="1" parent="1" source="P90ATOuqphbmk_Rswc86-3" target="P90ATOuqphbmk_Rswc86-4">
          <mxGeometry relative="1" as="geometry"/>
        </mxCell>
        <mxCell id="P90ATOuqphbmk_Rswc86-25" style="edgeStyle=orthogonalEdgeStyle;rounded=0;orthogonalLoop=1;jettySize=auto;html=1;exitX=0.5;exitY=1;exitDx=0;exitDy=0;entryX=0.5;entryY=0;entryDx=0;entryDy=0;" edge="1" parent="1" source="P90ATOuqphbmk_Rswc86-3" target="P90ATOuqphbmk_Rswc86-14">
          <mxGeometry relative="1" as="geometry"/>
        </mxCell>
        <mxCell id="P90ATOuqphbmk_Rswc86-26" style="edgeStyle=orthogonalEdgeStyle;rounded=0;orthogonalLoop=1;jettySize=auto;html=1;exitX=1;exitY=0.5;exitDx=0;exitDy=0;entryX=0.5;entryY=0;entryDx=0;entryDy=0;" edge="1" parent="1" source="P90ATOuqphbmk_Rswc86-3" target="P90ATOuqphbmk_Rswc86-19">
          <mxGeometry relative="1" as="geometry"/>
        </mxCell>
        <mxCell id="P90ATOuqphbmk_Rswc86-3" value="byte code&lt;br&gt;&lt;font style=&quot;font-size: 9px&quot;&gt;(*.class)&lt;/font&gt;" style="rounded=0;whiteSpace=wrap;html=1;" vertex="1" parent="1">
          <mxGeometry x="40" y="200" width="160" height="40" as="geometry"/>
        </mxCell>
        <mxCell id="P90ATOuqphbmk_Rswc86-34" value="&lt;font style=&quot;font-size: 42px&quot;&gt;...&lt;/font&gt;" style="text;html=1;align=center;verticalAlign=middle;resizable=0;points=[];autosize=1;" vertex="1" parent="1">
          <mxGeometry x="420" y="310" width="50" height="30" as="geometry"/>
        </mxCell>
      </root>
    </mxGraphModel>
  </diagram>
</mxfile>
